#!OML:ASF E:\motion texture\Top Level 1\Subject 1\Session 1\male.ASF
:FULLY-SPECIFIED
:DEGREES
129
root 14.6787 17.86 4.67409 91.626 -87.8589 -86.6523
lowerback -0.411971 -2.07072 0.0984563
upperback -1.35355 -2.76474 1.89084
thorax -1.06679 -1.38185 1.89468
lowerneck -8.43265 -5.48948 -4.6314
upperneck 24.2258 -9.93899 8.83806
head 9.71558 -4.44906 2.69014
rclavicle -3.26752e-015 -4.17448e-015
rhumerus 37.8512 -27.776 -9.4058
rradius 117.986
rwrist -50.2
rhand 0.646088 -21.8846
rfingers 7.12502
rthumb 26.2091 -50.095
lclavicle -3.26752e-015 -4.17448e-015
lhumerus -30.8099 7.73346 74.96
lradius 28.9345
lwrist -21.4142
lhand -11.1278 17.7018
lfingers 7.12502
lthumb 14.8973 47.1461
rfemur -32.862 -3.97455 20.4714
rtibia 30.4381
rfoot -3.37948 -18.4247
rtoes 7.83301
lfemur 0.47731 -4.0228 -19.4538
ltibia 12.6698
lfoot -13.7699 0.618155
ltoes -1.664
130
root 14.566 17.8479 4.6645 92.0297 -87.8932 -86.9423
lowerback -0.468443 -2.1057 0.0395677
upperback -1.37701 -2.81208 1.89712
thorax -1.05457 -1.40501 1.93239
lowerneck -8.47647 -5.48969 -4.62063
upperneck 24.1186 -9.94501 8.92245
head 9.69064 -4.44184 2.71526
rclavicle -8.56016e-015 -9.93923e-016
rhumerus 36.8657 -26.5293 -7.34178
rradius 117.554
rwrist -50.6329
rhand 0.502504 -22.2471
rfingers 7.12502
rthumb 26.0716 -50.4778
lclavicle -8.56016e-015 -9.93923e-016
lhumerus -30.9014 7.84094 74.8108
lradius 28.6501
lwrist -21.6105
lhand -11.1915 17.5396
lfingers 7.12502
lthumb 14.836 46.9885
rfemur -32.6744 -3.47509 20.2517
rtibia 27.7207
rfoot -2.34643 -17.9622
rtoes 7.94746
lfemur 0.781139 -3.92167 -19.4913
ltibia 12.6742
lfoot -13.979 0.7157
ltoes -2.15293
131
root 14.4517 17.8355 4.65461 92.56 -87.9345 -87.3603
lowerback -0.533726 -2.13957 -0.0176182
upperback -1.40094 -2.85798 1.89978
thorax -1.03812 -1.42751 1.96501
lowerneck -8.5233 -5.49011 -4.61377
upperneck 24.0167 -9.9501 9.00281
head 9.66809 -4.43479 2.73964
rclavicle 1.36789e-014 -2.5842e-015
rhumerus 35.9792 -25.2643 -5.3769
rradius 117.124
rwrist -51.0575
rhand 0.417649 -22.6121
rfingers 7.12502
rthumb 25.9903 -50.8547
lclavicle 1.36789e-014 -2.5842e-015
lhumerus -30.9904 7.98899 74.6494
lradius 28.3372
lwrist -21.8484
lhand -11.2281 17.3753
lfingers 7.12502
lthumb 14.8008 46.8268
rfemur -32.4353 -2.86224 19.9752
rtibia 25.0121
rfoot -1.42099 -17.4929
rtoes 7.95092
lfemur 1.1042 -3.79059 -19.5372
ltibia 12.661
lfoot -14.1824 0.824807
ltoes -2.62475
132
root 14.3357 17.8227 4.64448 93.003 -87.9808 -87.6896
lowerback -0.615014 -2.17482 -0.069666
upperback -1.42374 -2.90583 1.90028
thorax -1.01174 -1.45111 1.99173
lowerneck -8.58074 -5.48813 -4.61054
upperneck 23.9195 -9.94967 9.07826
head 9.64878 -4.42542 2.7633
rclavicle 3.44643e-014 -1.61016e-014
rhumerus 35.2027 -24.0268 -3.5362
rradius 116.707
rwrist -51.4967
rhand 0.398012 -22.9685
rfingers 7.12502
rthumb 25.9715 -51.2139
lclavicle 3.44643e-014 -1.61016e-014
lhumerus -31.0751 8.18 74.4778
lradius 27.9974
lwrist -22.1368
lhand -11.2317 17.2523
lfingers 7.12502
lthumb 14.7973 46.7041
rfemur -32.1591 -2.12971 19.634
rtibia 22.3582
rfoot -0.65738 -17.0893
rtoes 7.8024
lfemur 1.4397 -3.64744 -19.5891
ltibia 12.6346
lfoot -14.3865 0.941367
ltoes -3.06511
133
root 14.218 17.8095 4.63394 93.3971 -88.0322 -87.967
lowerback -0.714565 -2.21051 -0.115809
upperback -1.44142 -2.95441 1.89766
thorax -0.970241 -1.47526 2.01091
lowerneck -8.64964 -5.4886 -4.62388
upperneck 23.8279 -9.95175 9.161
head 9.63508 -4.41737 2.79164
rclavicle 9.03228e-015 -1.17283e-014
rhumerus 34.5447 -22.8646 -1.8514
rradius 116.307
rwrist -51.9415
rhand 0.475474 -23.3161
rfingers 7.12502
rthumb 26.0457 -51.5506
lclavicle 9.03228e-015 -1.17283e-014
lhumerus -31.1447 8.41894 74.2925
lradius 27.6268
lwrist -22.4898
lhand -11.2098 17.15
lfingers 7.12502
lthumb 14.8184 46.6001
rfemur -31.8642 -1.27862 19.2264
rtibia 19.8136
rfoot -0.118308 -16.8319
rtoes 7.50109
lfemur 1.79059 -3.51267 -19.6478
ltibia 12.5856
lfoot -14.5875 1.06429
ltoes -3.46197
134
root 14.099 17.7959 4.62282 93.629 -88.0842 -88.0787
lowerback -0.828662 -2.24452 -0.152349
upperback -1.45512 -3.00084 1.89099
thorax -0.917234 -1.49852 2.0197
lowerneck -8.72052 -5.49488 -4.64624
upperneck 23.7363 -9.9617 9.24917
head 9.62325 -4.41313 2.82233
rclavicle 1.11692e-014 -1.61016e-014
rhumerus 33.9959 -21.8168 -0.341025
rradius 115.932
rwrist -52.3792
rhand 0.621768 -23.6386
rfingers 7.12502
rthumb 26.1858 -51.8525
lclavicle 1.11692e-014 -1.61016e-014
lhumerus -31.2049 8.6686 74.1029
lradius 27.2449
lwrist -22.8732
lhand -11.1606 17.0607
lfingers 7.12502
lthumb 14.8657 46.5074
rfemur -31.5794 -0.343707 18.7695
rtibia 17.4529
rfoot 0.144402 -16.7632
rtoes 7.07308
lfemur 2.14339 -3.40713 -19.7075
ltibia 12.5337
lfoot -14.7922 1.19023
ltoes -3.83672
135
root 13.9788 17.7819 4.61117 93.7478 -88.1315 -88.0722
lowerback -0.953434 -2.27529 -0.175955
upperback -1.46909 -3.04302 1.8839
thorax -0.859326 -1.51985 2.02024
lowerneck -8.78019 -5.505 -4.67826
upperneck 23.6413 -9.97588 9.33985
head 9.60908 -4.41192 2.8553
rclavicle -1.03989e-014 -8.15017e-015
rhumerus 33.5539 -20.91 0.976661
rradius 115.595
rwrist -52.7802
rhand 0.814174 -23.9339
rfingers 7.12502
rthumb 26.37 -52.1203
lclavicle -1.03989e-014 -8.15017e-015
lhumerus -31.2712 8.93431 73.907
lradius 26.862
lwrist -23.2855
lhand -11.0805 16.9987
lfingers 7.12502
lthumb 14.943 46.4396
rfemur -31.3356 0.622571 18.2927
rtibia 15.3561
rfoot 0.0876391 -16.883
rtoes 6.48981
lfemur 2.48764 -3.33013 -19.7558
ltibia 12.4891
lfoot -14.9877 1.29782
ltoes -4.2234
136
root 13.8579 17.7675 4.59886 93.7228 -88.1706 -87.9222
lowerback -1.07216 -2.30096 -0.184898
upperback -1.48279 -3.07836 1.87736
thorax -0.805512 -1.53789 2.01332
lowerneck -8.84299 -5.52013 -4.71492
upperneck 23.5502 -9.99633 9.42958
head 9.59766 -4.41389 2.88784
rclavicle -4.95409e-014 2.127e-014
rhumerus 33.2077 -20.1669 2.09359
rradius 115.306
rwrist -53.1063
rhand 0.992495 -24.2085
rfingers 7.12502
rthumb 26.5407 -52.3691
lclavicle -4.95409e-014 2.127e-014
lhumerus -31.331 9.21088 73.7113
lradius 26.4753
lwrist -23.714
lhand -10.9751 16.9535
lfingers 7.12502
lthumb 15.0445 46.3869
rfemur -31.1568 1.53662 17.8389
rtibia 13.6063
rfoot -0.291301 -17.12
rtoes 5.77476
lfemur 2.8186 -3.28001 -19.7859
ltibia 12.4709
lfoot -15.1773 1.37902
ltoes -4.67227
137
root 13.737 17.7531 4.58578 93.338 -88.2012 -87.4154
lowerback -1.16809 -2.32433 -0.184572
upperback -1.50129 -3.11046 1.87379
thorax -0.769832 -1.55427 2.00539
lowerneck -8.91539 -5.53643 -4.74811
upperneck 23.4699 -10.0164 9.50601
head 9.59099 -4.41607 2.91499
rclavicle -2.02636e-014 -1.23246e-014
rhumerus 32.9516 -19.5998 2.99763
rradius 115.081
rwrist -53.357
rhand 1.08342 -24.4455
rfingers 7.12502
rthumb 26.6277 -52.593
lclavicle -2.02636e-014 -1.23246e-014
lhumerus -31.4065 9.47691 73.5213
lradius 26.1133
lwrist -24.1231
lhand -10.8504 16.9468
lfingers 7.12502
lthumb 15.1646 46.3712
rfemur -31.0691 2.27881 17.4614
rtibia 12.2826
rfoot -0.950742 -17.3533
rtoes 4.87193
lfemur 3.12825 -3.24679 -19.7897
ltibia 12.4857
lfoot -15.3532 1.40741
ltoes -5.17895
138
root 13.6154 17.739 4.57196 93.0739 -88.221 -87.0411
lowerback -1.24144 -2.33993 -0.173549
upperback -1.51874 -3.13207 1.87312
thorax -0.746503 -1.56542 1.99551
lowerneck -8.97787 -5.55365 -4.78375
upperneck 23.3923 -10.037 9.57803
head 9.5833 -4.41944 2.94125
rclavicle -2.69353e-014 8.74653e-015
rhumerus 32.7789 -19.2244 3.67943
rradius 114.929
rwrist -53.5392
rhand 1.03871 -24.6625
rfingers 7.12502
rthumb 26.5849 -52.8165
lclavicle -2.69353e-014 8.74653e-015
lhumerus -31.4844 9.76055 73.3301
lradius 25.7605
lwrist -24.5376
lhand -10.7242 16.9552
lfingers 7.12502
lthumb 15.2862 46.3703
rfemur -31.0766 2.76558 17.2167
rtibia 11.4336
rfoot -1.76495 -17.4417
rtoes 3.8229
lfemur 3.43182 -3.2389 -19.7716
ltibia 12.5322
lfoot -15.5169 1.40309
ltoes -5.75152
139
root 13.4939 17.7255 4.55712 92.9696 -88.2275 -86.8375
lowerback -1.28701 -2.34785 -0.153164
upperback -1.53484 -3.14328 1.87592
thorax -0.738026 -1.57135 1.98527
lowerneck -9.035 -5.57126 -4.81618
upperneck 23.3216 -10.0575 9.64113
head 9.57639 -4.42353 2.96405
rclavicle 1.87727e-014 -4.57205e-015
rhumerus 32.6878 -19.0534 4.12474
rradius 114.857
rwrist -53.671
rhand 0.863834 -24.8642
rfingers 7.12502
rthumb 26.4175 -53.0434
lclavicle 1.87727e-014 -4.57205e-015
lhumerus -31.5679 10.0453 73.1418
lradius 25.4315
lwrist -24.9437
lhand -10.5879 16.9854
lfingers 7.12502
lthumb 15.4174 46.3904
rfemur -31.1841 2.95721 17.136
rtibia 11.0711
rfoot -2.57193 -17.2994
rtoes 2.78084
lfemur 3.71705 -3.24465 -19.7237
ltibia 12.6243
lfoot -15.6654 1.35821
ltoes -6.38683
140
root 13.3719 17.7128 4.54125 93.1607 -88.2269 -86.9422
lowerback -1.30967 -2.3486 -0.130771
upperback -1.54577 -3.14474 1.8814
thorax -0.737393 -1.57235 1.97765
lowerneck -9.08135 -5.58882 -4.84868
upperneck 23.2534 -10.0771 9.69771
head 9.56786 -4.42818 2.98505
rclavicle 1.49461e-014 1.05356e-014
rhumerus 32.6786 -19.1038 4.32204
rradius 114.869
rwrist -53.7888
rhand 0.60078 -25.0401
rfingers 7.12502
rthumb 26.1657 -53.2569
lclavicle 1.49461e-014 1.05356e-014
lhumerus -31.6589 10.3578 72.9474
lradius 25.123
lwrist -25.364
lhand -10.4512 17.0362
lfingers 7.12502
lthumb 15.5491 46.4311
rfemur -31.3762 2.881 17.2087
rtibia 11.1632
rfoot -3.22678 -16.9141
rtoes 1.93124
lfemur 3.98726 -3.27275 -19.6612
ltibia 12.7667
lfoot -15.8 1.29334
ltoes -7.08665
141
root 13.2494 17.7011 4.52424 93.6211 -88.2246 -87.3235
lowerback -1.318 -2.34389 -0.114017
upperback -1.55219 -3.13875 1.88987
thorax -0.739941 -1.56953 1.97683
lowerneck -9.12422 -5.60535 -4.88526
upperneck 23.1939 -10.094 9.74779
head 9.56138 -4.4326 3.00494
rclavicle 8.58501e-015 5.36719e-015
rhumerus 32.7557 -19.3785 4.26609
rradius 114.964
rwrist -53.8998
rhand 0.311843 -25.2145
rfingers 7.12502
rthumb 25.889 -53.472
lclavicle 8.58501e-015 5.36719e-015
lhumerus -31.7485 10.7038 72.7489
lradius 24.8253
lwrist -25.8048
lhand -10.3311 17.0749
lfingers 7.12502
lthumb 15.6647 46.4608
rfemur -31.6336 2.62218 17.3943
rtibia 11.6417
rfoot -3.63231 -16.3466
rtoes 1.34876
lfemur 4.23795 -3.31746 -19.5922
ltibia 12.9602
lfoot -15.9197 1.21443
ltoes -7.83475
142
root 13.1257 17.6908 4.50608 94.212 -88.2262 -87.8449
lowerback -1.31001 -2.33405 -0.10913
upperback -1.55552 -3.12565 1.89908
thorax -0.748031 -1.56298 1.98413
lowerneck -9.16258 -5.62296 -4.92162
upperneck 23.1431 -10.1118 9.78913
head 9.55665 -4.43828 3.02184
rclavicle 1.30949e-014 -1.5704e-014
rhumerus 32.9114 -19.8701 3.96327
rradius 115.139
rwrist -53.9897
rhand 0.018967 -25.358
rfingers 7.12502
rthumb 25.6085 -53.6561
lclavicle 1.30949e-014 -1.5704e-014
lhumerus -31.839 11.073 72.5488
lradius 24.5368
lwrist -26.2506
lhand -10.2282 17.0958
lfingers 7.12502
lthumb 15.7639 46.4739
rfemur -31.9236 2.2691 17.6467
rtibia 12.4239
rfoot -3.78289 -15.6674
rtoes 1.07947
lfemur 4.47071 -3.37783 -19.5277
ltibia 13.2104
lfoot -16.0245 1.12906
ltoes -8.63233
143
root 13.0005 17.682 4.48674 94.6561 -88.2341 -88.2251
lowerback -1.28957 -2.32234 -0.117586
upperback -1.56103 -3.10979 1.90891
thorax -0.764699 -1.55486 2.00016
lowerneck -9.19133 -5.64051 -4.95901
upperneck 23.1008 -10.1281 9.81939
head 9.55236 -4.4447 3.03556
rclavicle -1.37037e-014 7.55382e-015
rhumerus 33.1438 -20.5599 3.42439
rradius 115.387
rwrist -54.0138
rhand -0.261122 -25.446
rfingers 7.12502
rthumb 25.3402 -53.7824
lclavicle -1.37037e-014 7.55382e-015
lhumerus -31.9417 11.482 72.3393
lradius 24.2592
lwrist -26.7129
lhand -10.1416 17.0976
lfingers 7.12502
lthumb 15.8473 46.4691
rfemur -32.2166 1.90718 17.9205
rtibia 13.4207
rfoot -3.76072 -14.9555
rtoes 1.11312
lfemur 4.68731 -3.45518 -19.4717
ltibia 13.5062
lfoot -16.1085 1.03966
ltoes -9.46201
